# AST/ASF file generated using VICON BodyLanguage
# -----------------------------------------------
:version 1.10
:name VICON
:units
  mass 1.0
  length 0.45
  angle deg
:documentation
   .ast/.asf automatically generated from VICON data using
   VICON BodyBuilder and BodyLanguage model FoxedUp or BRILLIANT.MOD
:root
   order TX TY TZ RX RY RZ
   axis XYZ
   position 0 0 0  
   orientation 0 0 0 
:bonedata
  begin
     id 1 
     name lhipjoint
     direction 0.64773 -0.699417 0.302095 
     length 2.48597 
     axis 0 0 0  XYZ
  end
  begin
     id 2 
     name lfemur
     direction 0.34202 -0.939693 0  
     length 6.71947  
     axis 0 0 20  XYZ
    dof rx ry rz
    limits (-160.0 20.0)
           (-70.0 70.0)
           (-60.0 70.0)
  end
  begin
     id 3 
     name ltibia
     direction 0.34202 -0.939693 0   
     length 8.08777   
     axis 0 0 20   XYZ
    dof rx
    limits (-10.0 170.0)
  end
  begin
     id 4 
     name lfoot
     direction 0.0808503 -0.222134 0.971658   
     length 2.08264   
     axis -90 7.62852e-016 20   XYZ
    dof rx rz
    limits (-45.0 90.0)
           (-70.0 20.0)
  end
  begin
     id 5 
     name ltoes
     direction 1.53502e-011 -4.22007e-011 1   
     length 1.04662   
     axis -90 7.62852e-016 20   XYZ
    dof rx
    limits (-90.0 20.0)
  end
  begin
     id 6 
     name rhipjoint
     direction -0.610924 -0.726792 0.313919   
     length 2.39233  
     axis 0 0 0  XYZ 
  end
  begin
     id 7 
     name rfemur
     direction -0.34202 -0.939693 0   
     length 6.96955   
     axis 0 0 -20   XYZ
    dof rx ry rz
    limits (-160.0 20.0)
           (-70.0 70.0)
           (-70.0 60.0)
  end
  begin
     id 8 
     name rtibia
     direction -0.34202 -0.939693 0   
     length 8.19584   
     axis 0 0 -20   XYZ
    dof rx
    limits (-10.0 170.0)
 end
 begin
     id 9 
     name rfoot
     direction -0.077777 -0.213691 0.9738   
     length 2.07539  
     axis -90 -7.62852e-016 -20   XYZ
    dof rx rz
    limits (-45.0 90.0)
           (-20.0 70.0)
  end
  begin
     id 10 
     name rtoes
     direction -1.53558e-011 -4.22006e-011 1   
     length 1.04381   
     axis -90 -7.62852e-016 -20   XYZ
    dof rx
    limits (-90.0 20.0)
  end
  begin
     id 11 
     name lowerback
     direction -0.00971646 0.996074 0.0879841   
     length 1.67643   
     axis 0 0 0   XYZ
    dof rx ry rz
    limits (-20.0 45.0)
           (-30.0 30.0)
           (-30.0 30.0)
  end
  begin
     id 12 
     name upperback
     direction 0.0127391 0.991676 0.128127   
     length 1.63741   
     axis 0 0 0   XYZ
    dof rx ry rz
    limits (-20.0 45.0)
           (-30.0 30.0)
           (-30.0 30.0)
  end
  begin
     id 13 
     name thorax
     direction 0.0167583 0.996049 0.0872067   
     length 1.65931   
     axis 0 0 0   XYZ
    dof rx ry rz
    limits (-20.0 45.0)
           (-30.0 30.0)
           (-30.0 30.0)
  end
  begin
     id 14 
     name lowerneck
     direction -0.0317829 0.998312 0.0486079   
     length 1.79021   
     axis 0 0 0   XYZ
    dof rx ry rz
    limits (-20.0 45.0)
           (-30.0 30.0)
           (-30.0 30.0)
  end
  begin
     id 15 
     name upperneck
     direction 0.0896851 0.972452 -0.215159   
     length 1.78797   
     axis 0 0 0   XYZ
    dof rx ry rz
    limits (-20.0 45.0)
           (-30.0 30.0)
           (-30.0 30.0)
  end
  begin
     id 16
     name head
     direction 0.0310949 0.996503 -0.0775582  
     length 1.81549  
     axis 0 0 0   XYZ
    dof rx ry rz
    limits (-20.0 45.0)
           (-30.0 30.0)
           (-30.0 30.0)
  end
  begin
     id 17 
     name lclavicle
     direction 0.853638 0.502051 -0.138733  
     length 3.31627  
     axis 0 0 0   XYZ
    dof ry rz
    limits (-20.0 10.0)
           (0.0 20.0)
  end
  begin
     id 18 
     name lhumerus
     direction 1 -4.48962e-011 -1.41788e-018   
     length 5.54893   
     axis 180 -30 -90   XYZ
    dof rx ry rz
    limits (-60.0 90.0)
           (-90.0 90.0)
           (-90.0 90.0)
  end
  begin
     id 19
     name lradius
     direction 1 -4.48962e-011 -4.95754e-027   
     length 3.02898   
     axis 180 -30 -90   XYZ
    dof rx
    limits (-10.0 170.0)
  end
  begin
     id 20
     name lwrist
     direction 1 -4.48952e-011 -1.03764e-026   
     length 1.51449   
     axis 9.09556e-015 90 90   XYZ
    dof ry
    limits (-180.0 0.0)
 end
  begin
     id 21 
     name lhand
     direction 1 -4.4902e-011 -2.07528e-026   
     length 0.640951   
     axis 1.3242e-014 90 90   XYZ
    dof rx rz
    limits (-90.0 90.0)
           (-45.0 45.0)
  end
  begin
     id 22 
     name lfingers
     direction 1 -4.49014e-011 -4.15056e-026   
     length 0.516751   
     axis 2.64841e-014 90 90   XYZ
    dof rx
    limits (0.0 90.0)
  end
  begin
     id 23
     name lthumb
     direction 0.707107 -6.35008e-011 0.707107   
     length 0.741954   
     axis -90 45 2.85299e-015   XYZ
    dof rx rz
    limits (-45.0 45.0)
           (-45.0 45.0)
  end
  begin
     id 24 
     name rclavicle
     direction -0.888531 0.455324 -0.0565039   
     length 3.20126  
     axis 0 0 0   XYZ 
    dof ry rz
    limits (-10.0 20.0)
           (-20.0 0.0)
  end
  begin
     id 25 
     name rhumerus
     direction -1 -4.48946e-011 -8.98298e-028  
     length 5.3519   
     axis 180 30 90   XYZ
    dof rx ry rz
    limits (-90.0 60.0)
           (-90.0 90.0)
           (-90.0 90.0)
  end
  begin
     id 26 
     name rradius
     direction -1 -4.4899e-011 -3.18779e-027   
     length 3.02531   
     axis 180 30 90   XYZ
    dof rx
    limits (-10.0 170.0)
  end
  begin
     id 27 
     name rwrist
     direction -1 -4.4897e-011 -1.03764e-026   
     length 1.51266   
     axis 9.09556e-015 -90 -90   XYZ
    dof ry
    limits (-180.0 0.0)
  end
  begin
     id 28
     name rhand
     direction -1 -4.48941e-011 -2.07528e-026   
     length 0.78389   
     axis 1.3242e-014 -90 -90   XYZ
    dof rx rz
    limits (-90.0 90.0)
           (-45.0 45.0)
  end
  begin
     id 29
     name rfingers
     direction -1 -4.49012e-011 -4.15056e-026   
     length 0.631992   
     axis 2.64841e-014 -90 -90   XYZ
    dof rx
    limits (0.0 90.0)
  end
  begin
     id 30
     name rthumb
     direction -0.707107 -6.3496e-011 0.707107   
     length 0.907418   
     axis -90 -45 -2.85299e-015   XYZ
    dof rx rz
    limits (-45.0 45.0)
           (-45.0 45.0)
  end
:hierarchy
  begin
    root lhipjoint rhipjoint lowerback
    lhipjoint lfemur
    lfemur ltibia
    ltibia lfoot
    lfoot ltoes
    rhipjoint rfemur
    rfemur rtibia
    rtibia rfoot
    rfoot rtoes
    lowerback upperback
    upperback thorax
    thorax lowerneck lclavicle rclavicle
    lowerneck upperneck
    upperneck head
    lclavicle lhumerus
    lhumerus lradius
    lradius lwrist
    lwrist lhand lthumb
    lhand lfingers
    rclavicle rhumerus
    rhumerus rradius
    rradius rwrist
    rwrist rhand rthumb
    rhand rfingers
  end

#!OML:ASF E:\Style3\Style3.ASF
:FULLY-SPECIFIED
:DEGREES
3670
root -0.466149 17.8872 0.828498 -147.781 83.3669 -160.28
lowerback -1.86506 1.18535 -0.148987
upperback -0.190029 1.62726 -2.3642
thorax 0.915264 0.826581 -2.2968
lowerneck 4.67794 3.89544 0.26285
upperneck 17.1905 5.58062 3.3726
head 4.8063 3.19101 1.27255
rclavicle 1.51076e-014 -3.97569e-015
rhumerus 12.0375 51.0707 -72.7502
rradius 128.776
rwrist 24.5156
rhand -32.46 41.9948
rfingers 7.12502
rthumb -5.69284 12.0913
lclavicle 1.51076e-014 -3.97569e-015
lhumerus 7.10121 -46.0019 77.254
lradius 130.699
lwrist 6.85294
lhand -36.4306 -0.598851
lfingers 7.12502
lthumb -9.52527 29.1659
rfemur -11.2122 10.437 16.9333
rtibia 8.82135
rfoot -8.08663 -21.7963
rtoes -21.2171
lfemur 0 0 0
ltibia 0
lfoot 0 0
ltoes 0
3671
root -0.46492 17.8868 0.827587 -148.074 83.3622 -160.58
lowerback -1.8622 1.24041 -0.158424
upperback -0.219758 1.69998 -2.35209
thorax 0.885411 0.862571 -2.27749
lowerneck 4.83653 4.05843 0.174923
upperneck 16.696 5.68888 4.14911
head 4.56038 3.26182 1.5293
rclavicle -9.14409e-015 -3.97569e-015
rhumerus 11.723 50.9742 -72.9114
rradius 128.961
rwrist 24.4601
rhand -32.3941 42.3357
rfingers 7.12502
rthumb -5.62927 12.4304
lclavicle -9.14409e-015 -3.97569e-015
lhumerus 6.8601 -46.2453 77.4961
lradius 130.783
lwrist 7.36887
lhand -36.4583 -0.58366
lfingers 7.12502
lthumb -9.55204 29.1798
rfemur -11.1767 10.4152 16.9009
rtibia 8.76573
rfoot -8.03173 -21.797
rtoes -21.2879
lfemur 0 0 0
ltibia 0
lfoot 0 0
ltoes 0
3672
root -0.463 17.8861 0.827213 -147.956 83.3287 -160.496
lowerback -1.90056 1.29074 -0.123244
upperback -0.25521 1.76591 -2.33995
thorax 0.873814 0.895341 -2.28249
lowerneck 5.0773 4.22095 0.199494
upperneck 16.0575 5.81267 4.86836
head 4.25337 3.33784 1.73648
rclavicle 2.28602e-014 -1.19271e-014
rhumerus 11.3095 50.8613 -73.2015
rradius 129.154
rwrist 24.4979
rhand -32.3397 42.5225
rfingers 7.12502
rthumb -5.57674 12.6159
lclavicle 2.28602e-014 -1.19271e-014
lhumerus 6.47343 -46.568 77.824
lradius 130.932
lwrist 7.63933
lhand -36.8184 -0.540121
lfingers 7.12502
lthumb -9.89945 29.2071
rfemur -11.1741 10.3927 16.9238
rtibia 8.70947
rfoot -7.92825 -21.8132
rtoes -21.4796
lfemur 0 0 0
ltibia 0
lfoot 0 0
ltoes 0
3673
root -0.459734 17.8857 0.82498 -147.576 83.3269 -160.136
lowerback -1.97564 1.36209 -0.0584038
upperback -0.264092 1.85966 -2.31202
thorax 0.911579 0.942238 -2.28575
lowerneck 5.44793 4.38219 0.20181
upperneck 15.2143 5.9478 5.58055
head 3.85166 3.40762 1.92919
rclavicle -4.96962e-015 3.18055e-015
rhumerus 10.8408 50.6632 -73.5021
rradius 129.326
rwrist 24.48
rhand -32.2046 42.8295
rfingers 7.12502
rthumb -5.44626 12.9195
lclavicle -4.96962e-015 3.18055e-015
lhumerus 6.18944 -46.8255 78.1253
lradius 131.035
lwrist 7.65769
lhand -36.8543 -0.622926
lfingers 7.12502
lthumb -9.9341 29.1227
rfemur -11.1596 10.4128 16.9497
rtibia 8.64811
rfoot -7.94564 -21.7835
rtoes -21.3617
lfemur 0 0 0
ltibia 0
lfoot 0 0
ltoes 0
3674
root -0.45516 17.8849 0.822714 -147.411 83.3743 -159.973
lowerback -2.0396 1.44289 -0.0373181
upperback -0.265823 1.96726 -2.29531
thorax 0.950038 0.996089 -2.27554
lowerneck 5.70317 4.58298 0.0712007
upperneck 14.3862 6.13027 6.45224
head 3.47308 3.49611 2.19989
rclavicle -1.78906e-015 -2.22639e-014
rhumerus 10.4397 50.4983 -73.7148
rradius 129.423
rwrist 24.4281
rhand -32.1439 43.121
rfingers 7.12502
rthumb -5.3877 13.2095
lclavicle -1.78906e-015 -2.22639e-014
lhumerus 6.06739 -47.0493 78.2924
lradius 131.024
lwrist 7.13736
lhand -36.6216 -0.744784
lfingers 7.12502
lthumb -9.70959 29.0114
rfemur -11.1339 10.4642 16.9378
rtibia 8.60775
rfoot -7.94174 -21.8076
rtoes -21.5277
lfemur 0 0 0
ltibia 0
lfoot 0 0
ltoes 0
3675
root -0.450685 17.8842 0.820995 -147.276 83.3975 -159.849
lowerback -2.06093 1.47765 -0.108225
upperback -0.288826 2.01344 -2.2254
thorax 0.935281 1.01821 -2.16231
lowerneck 5.72085 4.87637 -0.0636564
upperneck 13.7394 6.44073 7.38448
head 3.19829 3.65359 2.50655
rclavicle -1.39149e-015 6.36111e-015
rhumerus 10.0275 50.4935 -73.9285
rradius 129.462
rwrist 24.3887
rhand -32.1801 43.2584
rfingers 7.12502
rthumb -5.42261 13.3478
lclavicle -1.39149e-015 6.36111e-015
lhumerus 5.85661 -47.2485 78.4697
lradius 130.939
lwrist 6.04802
lhand -36.5629 -0.77768
lfingers 7.12502
lthumb -9.65297 28.9811
rfemur -11.1268 10.4923 16.9328
rtibia 8.59211
rfoot -7.9676 -21.8184
rtoes -21.5999
lfemur 0 0 0
ltibia 0
lfoot 0 0
ltoes 0
3676
root -0.445767 17.8839 0.819093 -147.632 83.4283 -160.229
lowerback -2.06138 1.51398 -0.210753
upperback -0.369935 2.06231 -2.19037
thorax 0.849338 1.04162 -2.06872
lowerneck 5.76537 5.19391 -0.295359
upperneck 13.0936 6.78626 8.51188
head 2.90786 3.8291 2.89386
rclavicle 6.95746e-015 -3.97569e-015
rhumerus 9.37866 50.4978 -74.3034
rradius 129.511
rwrist 24.2277
rhand -32.5071 43.472
rfingers 7.12502
rthumb -5.73838 13.5697
lclavicle 6.95746e-015 -3.97569e-015
lhumerus 5.56697 -47.5592 78.7202
lradius 130.759
lwrist 4.91336
lhand -36.355 -0.929662
lfingers 7.12502
lthumb -9.45235 28.8384
rfemur -11.1157 10.4924 16.8614
rtibia 8.56278
rfoot -7.97622 -21.8194
rtoes -21.6208
lfemur 0 0 0
ltibia 0
lfoot 0 0
ltoes 0
3677
root -0.440419 17.8841 0.816973 -147.732 83.4332 -160.348
lowerback -2.01296 1.57149 -0.25049
upperback -0.516664 2.13651 -2.16792
thorax 0.672178 1.07766 -2.02529
lowerneck 5.91829 5.45867 -0.543691
upperneck 12.4276 7.08522 9.66346
head 2.59017 3.97769 3.28885
rclavicle 1.76918e-014 -2.14687e-014
rhumerus 8.43494 50.4527 -74.8954
rradius 129.492
rwrist 24.0719
rhand -33.0557 43.6734
rfingers 7.12502
rthumb -6.26801 13.7861
lclavicle 1.76918e-014 -2.14687e-014
lhumerus 5.37436 -47.8805 78.9266
lradius 130.481
lwrist 4.27027
lhand -36.0509 -1.25932
lfingers 7.12502
lthumb -9.15889 28.5218
rfemur -11.1015 10.4873 16.8315
rtibia 8.53027
rfoot -8.0012 -21.8514
rtoes -21.5083
lfemur 0 0 0
ltibia 0
lfoot 0 0
ltoes 0
3678
root -0.434302 17.8844 0.816905 -147.244 83.4311 -159.902
lowerback -2.05181 1.56797 -0.331019
upperback -0.619769 2.13043 -2.05644
thorax 0.580935 1.07348 -1.86664
lowerneck 5.90556 5.77854 -0.899217
upperneck 11.8334 7.46511 10.7425
head 2.31655 4.16004 3.69076
rclavicle -5.76476e-015 -4.77083e-015
rhumerus 7.62173 50.6063 -75.3771
rradius 129.41
rwrist 23.928
rhand -33.3851 43.9749
rfingers 7.12502
rthumb -6.58594 14.0973
lclavicle -5.76476e-015 -4.77083e-015
lhumerus 5.39123 -47.9292 78.9525
lradius 130.237
lwrist 4.13041
lhand -35.8421 -0.879299
lfingers 7.12502
lthumb -8.95743 28.9105
rfemur -11.109 10.5136 16.8725
rtibia 8.48572
rfoot -7.98018 -21.882
rtoes -21.4421
lfemur 0 0 0
ltibia 0
lfoot 0 0
ltoes 0
3679
root -0.429229 17.8837 0.817386 -146.874 83.4346 -159.609
lowerback -2.16837 1.5305 -0.513283
upperback -0.671784 2.08271 -1.89654
thorax 0.579045 1.04875 -1.5994
lowerneck 5.71171 6.10078 -1.38502
upperneck 11.268 7.84876 11.8674
head 2.07123 4.34247 4.14654
rclavicle -1.74931e-014 -3.97569e-015
rhumerus 7.03869 50.7531 -75.6321
rradius 129.295
rwrist 23.7645
rhand -33.3653 44.1065
rfingers 7.12502
rthumb -6.56685 14.2284
lclavicle -1.74931e-014 -3.97569e-015
lhumerus 5.31512 -47.966 79.0686
lradius 130.019
lwrist 4.23024
lhand -35.8727 -0.364605
lfingers 7.12502
lthumb -8.98699 29.424
rfemur -11.1361 10.5352 16.8969
rtibia 8.40748
rfoot -7.98771 -21.8734
rtoes -21.5419
lfemur 0 0 0
ltibia 0
lfoot 0 0
ltoes 0
3680
root -0.425105 17.8849 0.81729 -146.373 83.4071 -159.198
lowerback -2.24541 1.59733 -0.533697
upperback -0.782388 2.17152 -1.84959
thorax 0.508483 1.093 -1.53711
lowerneck 5.54486 6.2664 -1.72156
upperneck 10.7265 8.05032 13.0924
head 1.83834 4.44732 4.62289
rclavicle 6.16232e-015 -3.97569e-015
rhumerus 6.15131 50.5604 -76.1328
rradius 129.144
rwrist 23.6518
rhand -33.4563 44.2446
rfingers 7.12502
rthumb -6.65477 14.3692
lclavicle 6.16232e-015 -3.97569e-015
lhumerus 4.99135 -48.3928 79.363
lradius 129.768
lwrist 4.33593
lhand -35.7197 0.142438
lfingers 7.12502
lthumb -8.8393 29.9373
rfemur -11.1345 10.5381 16.9482
rtibia 8.25596
rfoot -8.04909 -21.8212
rtoes -21.2822
lfemur 0 0 0
ltibia 0
lfoot 0 0
ltoes 0
3681
root -0.41918 17.8856 0.81598 -145.992 83.4196 -158.867
lowerback -2.23092 1.72271 -0.525104
upperback -0.940013 2.33692 -1.86215
thorax 0.343629 1.17585 -1.55392
lowerneck 5.341 6.38389 -1.9347
upperneck 10.443 8.15312 14.6162
head 1.47044 4.5425 4.65997
rclavicle -1.88845e-014 -1.11319e-014
rhumerus 5.09268 50.2604 -76.7698
rradius 128.921
rwrist 23.6686
rhand -33.6884 44.3712
rfingers 7.12502
rthumb -6.87873 14.503
lclavicle -1.88845e-014 -1.11319e-014
lhumerus 4.24246 -49.0423 79.9724
lradius 129.541
lwrist 4.30334
lhand -35.2575 0.755555
lfingers 7.12502
lthumb -8.3933 30.5688
rfemur -11.1134 10.5677 16.9583
rtibia 8.11958
rfoot -7.8985 -21.8166
rtoes -21.3072
lfemur 0 0 0
ltibia 0
lfoot 0 0
ltoes 0
3682
root -0.410959 17.8845 0.814986 -145.282 83.4361 -158.197
lowerback -2.24282 1.82817 -0.478417
upperback -1.09423 2.47568 -1.87793
thorax 0.198245 1.24532 -1.59552
lowerneck 5.14006 6.53501 -2.05619
upperneck 9.96688 8.37755 15.7466
head 1.27604 4.66912 5.00524
rclavicle -4.17448e-015 2.22639e-014
rhumerus 4.08058 49.9986 -77.4219
rradius 128.638
rwrist 23.7185
rhand -33.999 44.2858
rfingers 7.12502
rthumb -7.17864 14.4276
lclavicle -4.17448e-015 2.22639e-014
lhumerus 3.26352 -49.6107 80.7718
lradius 129.294
lwrist 4.12614
lhand -35.0546 0.354301
lfingers 7.12502
lthumb -8.19747 30.1753
rfemur -11.0713 10.6245 17.0088
rtibia 7.98486
rfoot -7.76651 -21.855
rtoes -21.4888
lfemur 0 0 0
ltibia 0
lfoot 0 0
ltoes 0
3683
root -0.402742 17.8848 0.814789 -145.024 83.4376 -158.012
lowerback -2.29262 1.89552 -0.508017
upperback -1.24703 2.56599 -1.87617
thorax 0.0704174 1.29092 -1.57658
lowerneck 4.99323 6.66782 -2.19274
upperneck 9.38775 8.60383 16.7558
head 1.04581 4.7827 5.31142
rclavicle -2.26615e-014 2.3059e-014
rhumerus 3.20191 49.7427 -77.9336
rradius 128.34
rwrist 23.7447
rhand -34.2232 44.1012
rfingers 7.12502
rthumb -7.39498 14.2504
lclavicle -2.26615e-014 2.3059e-014
lhumerus 2.71245 -49.8176 81.3331
lradius 128.806
lwrist 4.27733
lhand -35.5598 0.549939
lfingers 7.12502
lthumb -8.68505 30.3513
rfemur -11.0452 10.6373 17.0185
rtibia 7.84817
rfoot -7.7052 -21.8524
rtoes -21.7052
lfemur 0 0 0
ltibia 0
lfoot 0 0
ltoes 0
3684
root -0.395518 17.8862 0.813835 -144.726 83.41 -157.793
lowerback -2.32795 1.92124 -0.546579
upperback -1.4012 2.59988 -1.80293
thorax -0.0720312 1.3083 -1.48153
lowerneck 4.76129 6.82188 -2.39091
upperneck 8.89259 8.85668 17.6229
head 0.854548 4.90833 5.59002
rclavicle 5.41688e-014 -4.85035e-014
rhumerus 2.45545 49.5739 -78.3196
rradius 127.989
rwrist 23.7518
rhand -34.2736 44.2749
rfingers 7.12502
rthumb -7.4437 14.4259
lclavicle 5.41688e-014 -4.85035e-014
lhumerus 2.43619 -49.6191 81.7198
lradius 128.201
lwrist 4.62834
lhand -36.3089 1.51406
lfingers 7.12502
lthumb -9.4079 31.2841
rfemur -11.0493 10.6268 17.04
rtibia 7.75204
rfoot -7.72874 -21.8197
rtoes -21.5256
lfemur 0 0 0
ltibia 0
lfoot 0 0
ltoes 0
